<svg width="64" height="24" viewBox="0 0 64 24" fill="none" xmlns="http://www.w3.org/2000/svg">
<path d="M57.2 17.2L60 20M59.2 11.6C59.2 7.40264 55.7974 4 51.6 4C47.4026 4 44 7.40264 44 11.6C44 15.7974 47.4026 19.2 51.6 19.2C55.7974 19.2 59.2 15.7974 59.2 11.6Z" stroke="#1A2530" stroke-width="1.5" stroke-linecap="round" stroke-linejoin="round"/>
<path d="M5 21L5 14M5 14C6.10457 14 7 13.1046 7 12C7 10.8954 6.10457 10 5 10M5 14C3.89543 14 3 13.1046 3 12C3 10.8954 3.89543 10 5 10M12 21V12M12 5V3M12 5C13.1046 5 14 5.89543 14 7C14 8.10457 13.1046 9 12 9C10.8954 9 10 8.10457 10 7C10 5.89543 10.8954 5 12 5ZM5 10L5 3M19 12V3M19 21V19M19 19C20.1046 19 21 18.1046 21 17C21 15.8954 20.1046 15 19 15C17.8954 15 17 15.8954 17 17C17 18.1046 17.8954 19 19 19Z" stroke="#1A2530" stroke-width="1.5" stroke-linecap="round"/>
</svg>
