<svg width="335" height="48" viewBox="0 0 335 48" fill="none" xmlns="http://www.w3.org/2000/svg">
<rect width="335" height="48" rx="24" fill="white"/>
<circle cx="17" cy="24" r="3" fill="#1A2530"/>
<circle cx="26" cy="24" r="3" fill="#1A2530"/>
<circle cx="35" cy="24" r="3" fill="#1A2530"/>
<circle cx="44" cy="24" r="3" fill="#1A2530"/>
<circle cx="53" cy="24" r="3" fill="#1A2530"/>
<circle cx="62" cy="24" r="3" fill="#1A2530"/>
<circle cx="71" cy="24" r="3" fill="#1A2530"/>
<circle cx="80" cy="24" r="3" fill="#1A2530"/>
<path d="M301 16L317 32M311 26.2361C310.469 26.7111 309.768 27 309 27C307.343 27 306 25.6569 306 24C306 23.2316 306.289 22.5308 306.764 22M316.608 27.6077C317.179 27.1103 317.69 26.6099 318.13 26.1469C319.29 24.9268 319.29 23.0732 318.13 21.8531C316.175 19.7953 312.816 17 309 17C308.109 17 307.242 17.1526 306.413 17.4126M303.5 18.8034C302.041 19.7344 300.798 20.8768 299.87 21.8531C298.71 23.0732 298.71 24.9268 299.87 26.1469C301.826 28.2047 305.185 31 309 31C310.868 31 312.627 30.3299 314.165 29.4044" stroke="#1A2530" stroke-width="1.5" stroke-linecap="round"/>
</svg>
