<svg width="24" height="24" viewBox="0 0 24 24" fill="none" xmlns="http://www.w3.org/2000/svg">
<path d="M24 12.2737C24.001 11.456 23.9305 10.6397 23.7891 9.83377H12.2428V14.4553H18.856C18.7207 15.1934 18.4343 15.897 18.014 16.5238C17.5937 17.1505 17.0484 17.6873 16.4107 18.1018V21.1018H20.3575C22.6685 19.0135 24 15.9252 24 12.2737Z" fill="#4285F4"/>
<path d="M12.2429 24C15.547 24 18.3289 22.9366 20.3576 21.1034L16.4108 18.1035C15.3123 18.8334 13.8975 19.2501 12.2429 19.2501C9.04941 19.2501 6.33884 17.1402 5.36957 14.2969H1.30371V17.3885C2.32276 19.3759 3.88535 21.0466 5.81704 22.2141C7.74872 23.3815 9.97348 23.9998 12.2429 24Z" fill="#34A853"/>
<path d="M5.36957 14.297C4.85715 12.8071 4.85715 11.1937 5.36957 9.70383V6.61226H1.30371C0.446458 8.28413 0 10.1293 0 12.0004C0 13.8715 0.446458 15.7167 1.30371 17.3886L5.36957 14.297Z" fill="#FBBC04"/>
<path d="M12.2429 4.75064C13.989 4.72268 15.6761 5.36925 16.9397 6.55059L20.4341 3.12569C18.2183 1.08588 15.2827 -0.0340101 12.2429 0.000787288C9.97348 0.000888661 7.74872 0.619193 5.81704 1.78667C3.88535 2.95415 2.32276 4.62485 1.30371 6.61225L5.36957 9.70383C6.33884 6.86058 9.04941 4.75064 12.2429 4.75064Z" fill="#EA4335"/>
</svg>
