<svg width="16" height="16" viewBox="0 0 16 16" fill="none" xmlns="http://www.w3.org/2000/svg">
<path d="M4.66668 4V4.6C4.86729 4.6 5.05463 4.49974 5.16591 4.33282L4.66668 4ZM5.60419 2.59373L5.10496 2.26091V2.26091L5.60419 2.59373ZM10.3958 2.59373L10.8951 2.26091L10.3958 2.59373ZM11.3333 4L10.8341 4.33282C10.9454 4.49974 11.1327 4.6 11.3333 4.6V4ZM9.40001 9C9.40001 9.7732 8.77321 10.4 8.00001 10.4V11.6C9.43595 11.6 10.6 10.4359 10.6 9H9.40001ZM8.00001 10.4C7.22681 10.4 6.60001 9.7732 6.60001 9H5.40001C5.40001 10.4359 6.56407 11.6 8.00001 11.6V10.4ZM6.60001 9C6.60001 8.2268 7.22681 7.6 8.00001 7.6V6.4C6.56407 6.4 5.40001 7.56406 5.40001 9H6.60001ZM8.00001 7.6C8.77321 7.6 9.40001 8.2268 9.40001 9H10.6C10.6 7.56406 9.43595 6.4 8.00001 6.4V7.6ZM5.16591 4.33282L6.10342 2.92655L5.10496 2.26091L4.16745 3.66718L5.16591 4.33282ZM6.71359 2.6H9.28643V1.4H6.71359V2.6ZM9.8966 2.92655L10.8341 4.33282L11.8326 3.66718L10.8951 2.26091L9.8966 2.92655ZM9.28643 2.6C9.53162 2.6 9.76059 2.72254 9.8966 2.92655L10.8951 2.26091C10.5365 1.72306 9.93285 1.4 9.28643 1.4V2.6ZM6.10342 2.92655C6.23943 2.72254 6.4684 2.6 6.71359 2.6V1.4C6.06717 1.4 5.46353 1.72306 5.10496 2.26091L6.10342 2.92655ZM14.0667 6.66667V11.3333H15.2667V6.66667H14.0667ZM12 13.4H4.00001V14.6H12V13.4ZM1.93334 11.3333V6.66667H0.733343V11.3333H1.93334ZM4.00001 13.4C2.85862 13.4 1.93334 12.4747 1.93334 11.3333H0.733343C0.733343 13.1375 2.19588 14.6 4.00001 14.6V13.4ZM14.0667 11.3333C14.0667 12.4747 13.1414 13.4 12 13.4V14.6C13.8041 14.6 15.2667 13.1375 15.2667 11.3333H14.0667ZM12 4.6C13.1414 4.6 14.0667 5.52528 14.0667 6.66667H15.2667C15.2667 4.86254 13.8041 3.4 12 3.4V4.6ZM4.00001 3.4C2.19588 3.4 0.733343 4.86254 0.733343 6.66667H1.93334C1.93334 5.52528 2.85862 4.6 4.00001 4.6V3.4ZM4.00001 4.6H4.66668V3.4H4.00001V4.6ZM12 3.4H11.3333V4.6H12V3.4Z" fill="white"/>
<circle cx="8.00001" cy="4.00004" r="0.666667" fill="white"/>
</svg>
